<?xml version="1.0" encoding="UTF-8"?>
<svg xmlns="http://www.w3.org/2000/svg" viewBox="0 0 24 24" width="24" height="24" aria-hidden="true">
  <g fill="none" stroke="currentColor" stroke-width="1.6" stroke-linecap="round" stroke-linejoin="round">
    <!-- cup body -->
    <path d="M4 10h10v2a5 5 0 0 1-5 5H9a5 5 0 0 1-5-5v-2z"/>
    <!-- handle -->
    <path d="M15.5 11H17a2.5 2.5 0 0 1 0 5h-1.5"/>
    <!-- saucer -->
    <path d="M3 19c2 1 14 1 16 0"/>
    <!-- leaf sprout -->
    <path d="M9.5 7.5c0-1.3-1.1-2.4-2.4-2.4 0 1.8 1 2.6 2.4 2.4m1.8 0c0-1.3 1.1-2.4 2.4-2.4 0 1.8-1 2.6-2.4 2.4"/>
  </g>
</svg>
